<svg xmlns="http://www.w3.org/2000/svg" xmlns:xlink="http://www.w3.org/1999/xlink" width="220" height="110" viewBox="0 0 440 440">
<path d="M6.4979 138.623L5.38602 138.623C4.64479 138.623 3.57953 138.623 2.1903 138.623C0.80113 138.623 0.0721361 138.623 0.00337956 138.623C-0.0654352 138.623 0.913296 138.4 2.93957 137.956C4.96585 137.511 10.1178 135.288 18.3953 131.289C26.6728 127.289 37.0547 118.508 49.5409 104.945C62.0271 91.3831 73.2964 77.6131 83.3489 63.6353C93.4014 49.6575 100.407 38.1051 104.366 28.9781C108.325 19.8512 111.059 13.0135 112.567 8.46509C114.076 3.91679 114.627 1.18051 114.221 0.256264C113.815 -0.667987 113.143 0.907586 112.205 4.98322C111.267 9.05873 109.824 16.4076 107.877 27.0301C105.93 37.6525 103.999 50.3336 102.084 65.0734C100.169 79.8133 99.3013 96.8383 99.4818 116.149C99.6623 135.459 100.149 155.559 100.942 176.448C101.734 197.336 102.839 215.664 104.256 231.431C105.672 247.198 107.228 261.014 108.922 272.88C110.616 284.745 111.978 294.777 113.008 302.973C114.038 311.17 114.66 319.265 114.873 327.259C115.087 335.252 114.649 342.279 113.561 348.338C112.472 354.397 109.523 359.999 104.714 365.144C99.9042 370.29 93.2279 374.418 84.685 377.53C76.142 380.641 66.8829 382.66 56.9076 383.587C46.9323 384.514 38.8194 384.258 32.5689 382.818C26.3184 381.378 22.3427 378.485 20.6419 374.141C18.9411 369.796 19.478 363.701 22.2528 355.857C25.0275 348.013 29.8415 339.13 36.6946 329.209C43.5477 319.288 52.0237 308.382 62.1226 296.491C72.2214 284.6 83.6279 272.67 96.3419 260.7C109.056 248.729 121.788 238.221 134.537 229.174C147.286 220.127 157.843 212.607 166.207 206.614C174.572 200.622 182.289 196.687 189.359 194.809L199.964 191.993" fill="none" stroke="#f4f4f4" stroke-opacity="1.000000" stroke-width="20" stroke-linejoin="round" stroke-linecap="round" stroke-dasharray="0 0" transform="matrix(1 0 0 1 48.6238 49.3123)"/>
</svg>